<svg version="1.1" xmlns="http://www.w3.org/2000/svg" xmlns:xlink="http://www.w3.org/1999/xlink" width="360px" height="360px" viewBox="0 0 360 360"><style>text{font-family:Times new roman;font-size: 12px;}tspan{font-family:Times new roman;font-size: 12px;}</style><rect width="360" height="360" fill="#fff" x="0" y="0"></rect><defs><g><path id="pShap" d="M0,16a16,16 0 1,0 32,0a16,16 0 1,0 -32,0" vector-effect="non-scaling-stroke"></path></g><g><path id="pShap2" d="M16 0 L32 32 L0 32 Z" vector-effect="non-scaling-stroke"></path></g><g><path id="pShap3" d="M0 0 L32 0L 16 32 Z" vector-effect="non-scaling-stroke"></path></g></defs><g transform="translate(10,15)"><g transform="translate(83.318359375,0)"><text x="0" y="21" style="font-size: 12px; text-anchor: end;">Points</text><text x="0" y="0" style="font-size: 12px; text-anchor: end;"></text><text x="0" y="73.5" style="font-size: 12px; text-anchor: end;">riskscore(****)</text><text x="0" y="148.5" style="font-size: 12px; text-anchor: end;">age(**)</text><text x="0" y="201" style="font-size: 12px; text-anchor: end;">Total points</text><text x="0" y="231" style="font-size: 12px; text-anchor: end;">Linear Predictor</text><text x="0" y="261" style="font-size: 12px; text-anchor: end;">Probability of 7</text><text x="0" y="291" style="font-size: 12px; text-anchor: end;">Probability of 14</text><text x="0" y="321" style="font-size: 12px; text-anchor: end;">Probability of 21</text></g><g transform="translate(88.318359375,0)"><g transform="translate(0,21)"><g fill="none" font-size="10" font-family="sans-serif" text-anchor="middle"><path class="domain" stroke="currentColor" d="M0.5,-6V0.5H222.181640625V-6"></path><g class="tick" opacity="1" transform="translate(0.5,0)"><line stroke="currentColor" y2="-6"></line><text fill="currentColor" y="-9" dy="0em">0</text><line y1="0" y2="180" stroke="#000000" stroke-opacity="0.1"></line></g><g class="tick" opacity="1" transform="translate(22.6681640625,0)"><line stroke="currentColor" y2="-6"></line><text fill="currentColor" y="-9" dy="0em">10</text><line y1="0" y2="180" stroke="#000000" stroke-opacity="0.1"></line></g><g class="tick" opacity="1" transform="translate(44.836328125,0)"><line stroke="currentColor" y2="-6"></line><text fill="currentColor" y="-9" dy="0em">20</text><line y1="0" y2="180" stroke="#000000" stroke-opacity="0.1"></line></g><g class="tick" opacity="1" transform="translate(67.00449218749999,0)"><line stroke="currentColor" y2="-6"></line><text fill="currentColor" y="-9" dy="0em">30</text><line y1="0" y2="180" stroke="#000000" stroke-opacity="0.1"></line></g><g class="tick" opacity="1" transform="translate(89.17265625,0)"><line stroke="currentColor" y2="-6"></line><text fill="currentColor" y="-9" dy="0em">40</text><line y1="0" y2="180" stroke="#000000" stroke-opacity="0.1"></line></g><g class="tick" opacity="1" transform="translate(111.3408203125,0)"><line stroke="currentColor" y2="-6"></line><text fill="currentColor" y="-9" dy="0em">50</text><line y1="0" y2="180" stroke="#000000" stroke-opacity="0.1"></line></g><g class="tick" opacity="1" transform="translate(133.50898437499998,0)"><line stroke="currentColor" y2="-6"></line><text fill="currentColor" y="-9" dy="0em">60</text><line y1="0" y2="180" stroke="#000000" stroke-opacity="0.1"></line></g><g class="tick" opacity="1" transform="translate(155.6771484375,0)"><line stroke="currentColor" y2="-6"></line><text fill="currentColor" y="-9" dy="0em">70</text><line y1="0" y2="180" stroke="#000000" stroke-opacity="0.1"></line></g><g class="tick" opacity="1" transform="translate(177.8453125,0)"><line stroke="currentColor" y2="-6"></line><text fill="currentColor" y="-9" dy="0em">80</text><line y1="0" y2="180" stroke="#000000" stroke-opacity="0.1"></line></g><g class="tick" opacity="1" transform="translate(200.01347656250002,0)"><line stroke="currentColor" y2="-6"></line><text fill="currentColor" y="-9" dy="0em">90</text><line y1="0" y2="180" stroke="#000000" stroke-opacity="0.1"></line></g><g class="tick" opacity="1" transform="translate(222.181640625,0)"><line stroke="currentColor" y2="-6"></line><text fill="currentColor" y="-9" dy="0em">100</text><line y1="0" y2="180" stroke="#000000" stroke-opacity="0.1"></line></g></g></g><g transform="translate(0,195)"><g fill="none" font-size="10" font-family="sans-serif" text-anchor="middle"><path class="domain" stroke="currentColor" d="M0.5,6V0.5H222.181640625V6"></path><g class="tick" opacity="1" transform="translate(0.5,0)"><line stroke="currentColor" y2="6"></line><text fill="currentColor" y="9" dy="0.71em">0</text></g><g class="tick" opacity="1" transform="translate(16.334402901785715,0)"><line stroke="currentColor" y2="6"></line><text fill="currentColor" y="9" dy="0.71em">10</text></g><g class="tick" opacity="1" transform="translate(32.16880580357143,0)"><line stroke="currentColor" y2="6"></line><text fill="currentColor" y="9" dy="0.71em">20</text></g><g class="tick" opacity="1" transform="translate(48.00320870535714,0)"><line stroke="currentColor" y2="6"></line><text fill="currentColor" y="9" dy="0.71em">30</text></g><g class="tick" opacity="1" transform="translate(63.837611607142854,0)"><line stroke="currentColor" y2="6"></line><text fill="currentColor" y="9" dy="0.71em">40</text></g><g class="tick" opacity="1" transform="translate(79.67201450892857,0)"><line stroke="currentColor" y2="6"></line><text fill="currentColor" y="9" dy="0.71em">50</text></g><g class="tick" opacity="1" transform="translate(95.50641741071428,0)"><line stroke="currentColor" y2="6"></line><text fill="currentColor" y="9" dy="0.71em">60</text></g><g class="tick" opacity="1" transform="translate(111.3408203125,0)"><line stroke="currentColor" y2="6"></line><text fill="currentColor" y="9" dy="0.71em">70</text></g><g class="tick" opacity="1" transform="translate(127.17522321428571,0)"><line stroke="currentColor" y2="6"></line><text fill="currentColor" y="9" dy="0.71em">80</text></g><g class="tick" opacity="1" transform="translate(143.00962611607144,0)"><line stroke="currentColor" y2="6"></line><text fill="currentColor" y="9" dy="0.71em">90</text></g><g class="tick" opacity="1" transform="translate(158.84402901785714,0)"><line stroke="currentColor" y2="6"></line><text fill="currentColor" y="9" dy="0.71em">100</text></g><g class="tick" opacity="1" transform="translate(174.67843191964286,0)"><line stroke="currentColor" y2="6"></line><text fill="currentColor" y="9" dy="0.71em">110</text></g><g class="tick" opacity="1" transform="translate(190.51283482142856,0)"><line stroke="currentColor" y2="6"></line><text fill="currentColor" y="9" dy="0.71em">120</text></g><g class="tick" opacity="1" transform="translate(206.3472377232143,0)"><line stroke="currentColor" y2="6"></line><text fill="currentColor" y="9" dy="0.71em">130</text></g><g class="tick" opacity="1" transform="translate(222.181640625,0)"><line stroke="currentColor" y2="6"></line><text fill="currentColor" y="9" dy="0.71em">140</text></g></g></g><g transform="translate(0,225)"><g fill="none" font-size="10" font-family="sans-serif" text-anchor="middle"><path class="domain" stroke="currentColor" d="M13.80157262159088,6V0.5H215.25734716294164V6"></path><g class="tick" opacity="1" transform="translate(13.80157262159088,0)"><line stroke="currentColor" y2="6"></line><text fill="currentColor" y="9" dy="0.71em">-2.5</text></g><g class="tick" opacity="1" transform="translate(36.18554757062985,0)"><line stroke="currentColor" y2="6"></line><text fill="currentColor" y="9" dy="0.71em">-2</text></g><g class="tick" opacity="1" transform="translate(58.569522519668745,0)"><line stroke="currentColor" y2="6"></line><text fill="currentColor" y="9" dy="0.71em">-1.5</text></g><g class="tick" opacity="1" transform="translate(80.95349746870764,0)"><line stroke="currentColor" y2="6"></line><text fill="currentColor" y="9" dy="0.71em">-1</text></g><g class="tick" opacity="1" transform="translate(103.3374724177467,0)"><line stroke="currentColor" y2="6"></line><text fill="currentColor" y="9" dy="0.71em">-0.5</text></g><g class="tick" opacity="1" transform="translate(125.72144736678558,0)"><line stroke="currentColor" y2="6"></line><text fill="currentColor" y="9" dy="0.71em">0</text></g><g class="tick" opacity="1" transform="translate(148.10542231582448,0)"><line stroke="currentColor" y2="6"></line><text fill="currentColor" y="9" dy="0.71em">0.5</text></g><g class="tick" opacity="1" transform="translate(170.4893972648632,0)"><line stroke="currentColor" y2="6"></line><text fill="currentColor" y="9" dy="0.71em">1</text></g><g class="tick" opacity="1" transform="translate(192.87337221390163,0)"><line stroke="currentColor" y2="6"></line><text fill="currentColor" y="9" dy="0.71em">1.5</text></g><g class="tick" opacity="1" transform="translate(215.25734716294164,0)"><line stroke="currentColor" y2="6"></line><text fill="currentColor" y="9" dy="0.71em">2</text></g></g></g><g transform="translate(0,255)"><g fill="none" font-size="10" font-family="sans-serif" text-anchor="middle"><path class="domain" stroke="currentColor" d="M87.48917691494759,6V0.5H210.38555444793286V6"></path><g class="tick" opacity="1" transform="translate(87.48917691494759,0)"><line stroke="currentColor" y2="6"></line><text fill="currentColor" y="9" dy="0.71em">0.95</text></g><g class="tick" opacity="1" transform="translate(119.7144336157205,0)"><line stroke="currentColor" y2="6"></line><text fill="currentColor" y="9" dy="0.71em">0.9</text></g><g class="tick" opacity="1" transform="translate(139.11713029723984,0)"><line stroke="currentColor" y2="6"></line><text fill="currentColor" y="9" dy="0.71em">0.85</text></g><g class="tick" opacity="1" transform="translate(164.68242224781542,0)"><line stroke="currentColor" y2="6"></line><text fill="currentColor" y="9" dy="0.71em">0.75</text></g><g class="tick" opacity="1" transform="translate(190.38694379264138,0)"><line stroke="currentColor" y2="6"></line><text fill="currentColor" y="9" dy="0.71em">0.6</text></g><g class="tick" opacity="1" transform="translate(210.38555444793286,0)"><line stroke="currentColor" y2="6"></line><text fill="currentColor" y="9" dy="0.71em">0.45</text></g></g></g><g transform="translate(0,285)"><g fill="none" font-size="10" font-family="sans-serif" text-anchor="middle"><path class="domain" stroke="currentColor" d="M68.02337412085677,6V0.5H209.3031239737002V6"></path><g class="tick" opacity="1" transform="translate(68.02337412085677,0)"><line stroke="currentColor" y2="6"></line><text fill="currentColor" y="9" dy="0.71em">0.95</text></g><g class="tick" opacity="1" transform="translate(100.248551629632,0)"><line stroke="currentColor" y2="6"></line><text fill="currentColor" y="9" dy="0.71em">0.9</text></g><g class="tick" opacity="1" transform="translate(119.65132704398063,0)"><line stroke="currentColor" y2="6"></line><text fill="currentColor" y="9" dy="0.71em">0.85</text></g><g class="tick" opacity="1" transform="translate(145.21654188678824,0)"><line stroke="currentColor" y2="6"></line><text fill="currentColor" y="9" dy="0.71em">0.75</text></g><g class="tick" opacity="1" transform="translate(170.9211042393864,0)"><line stroke="currentColor" y2="6"></line><text fill="currentColor" y="9" dy="0.71em">0.6</text></g><g class="tick" opacity="1" transform="translate(190.91968529310878,0)"><line stroke="currentColor" y2="6"></line><text fill="currentColor" y="9" dy="0.71em">0.45</text></g><g class="tick" opacity="1" transform="translate(209.3031239737002,0)"><line stroke="currentColor" y2="6"></line><text fill="currentColor" y="9" dy="0.71em">0.3</text></g></g></g><g transform="translate(0,315)"><g fill="none" font-size="10" font-family="sans-serif" text-anchor="middle"><path class="domain" stroke="currentColor" d="M59.081936614782585,6V0.5H213.3560590715072V6"></path><g class="tick" opacity="1" transform="translate(59.081936614782585,0)"><line stroke="currentColor" y2="6"></line><text fill="currentColor" y="9" dy="0.71em">0.95</text></g><g class="tick" opacity="1" transform="translate(91.3071723489501,0)"><line stroke="currentColor" y2="6"></line><text fill="currentColor" y="9" dy="0.71em">0.9</text></g><g class="tick" opacity="1" transform="translate(110.70989211705769,0)"><line stroke="currentColor" y2="6"></line><text fill="currentColor" y="9" dy="0.71em">0.85</text></g><g class="tick" opacity="1" transform="translate(136.27516512356598,0)"><line stroke="currentColor" y2="6"></line><text fill="currentColor" y="9" dy="0.71em">0.75</text></g><g class="tick" opacity="1" transform="translate(161.97971998007688,0)"><line stroke="currentColor" y2="6"></line><text fill="currentColor" y="9" dy="0.71em">0.6</text></g><g class="tick" opacity="1" transform="translate(181.97832669989535,0)"><line stroke="currentColor" y2="6"></line><text fill="currentColor" y="9" dy="0.71em">0.45</text></g><g class="tick" opacity="1" transform="translate(213.3560590715072,0)"><line stroke="currentColor" y2="6"></line><text fill="currentColor" y="9" dy="0.71em">0.2</text></g></g></g><g transform="translate(0,67.5)"><g fill="none" font-size="10" font-family="sans-serif" text-anchor="middle"><path class="domain" stroke="currentColor" d="M0.5,6V0.5H222.181640625V6"></path><g class="tick" opacity="1" transform="translate(0.5,0)"><line stroke="currentColor" y2="6"></line><text fill="currentColor" y="9" dy="0.71em">-3.5</text></g><g class="tick" opacity="1" transform="translate(16.334402901785715,0)"><line stroke="currentColor" y2="6"></line><text fill="currentColor" y="9" dy="0.71em">-3</text></g><g class="tick" opacity="1" transform="translate(32.16880580357143,0)"><line stroke="currentColor" y2="6"></line><text fill="currentColor" y="9" dy="0.71em">-2.5</text></g><g class="tick" opacity="1" transform="translate(48.00320870535714,0)"><line stroke="currentColor" y2="6"></line><text fill="currentColor" y="9" dy="0.71em">-2</text></g><g class="tick" opacity="1" transform="translate(63.837611607142854,0)"><line stroke="currentColor" y2="6"></line><text fill="currentColor" y="9" dy="0.71em">-1.5</text></g><g class="tick" opacity="1" transform="translate(79.67201450892857,0)"><line stroke="currentColor" y2="6"></line><text fill="currentColor" y="9" dy="0.71em">-1</text></g><g class="tick" opacity="1" transform="translate(95.50641741071428,0)"><line stroke="currentColor" y2="6"></line><text fill="currentColor" y="9" dy="0.71em">-0.5</text></g><g class="tick" opacity="1" transform="translate(111.3408203125,0)"><line stroke="currentColor" y2="6"></line><text fill="currentColor" y="9" dy="0.71em">0</text></g><g class="tick" opacity="1" transform="translate(127.17522321428571,0)"><line stroke="currentColor" y2="6"></line><text fill="currentColor" y="9" dy="0.71em">0.5</text></g><g class="tick" opacity="1" transform="translate(143.00962611607144,0)"><line stroke="currentColor" y2="6"></line><text fill="currentColor" y="9" dy="0.71em">1</text></g><g class="tick" opacity="1" transform="translate(158.84402901785714,0)"><line stroke="currentColor" y2="6"></line><text fill="currentColor" y="9" dy="0.71em">1.5</text></g><g class="tick" opacity="1" transform="translate(174.67843191964286,0)"><line stroke="currentColor" y2="6"></line><text fill="currentColor" y="9" dy="0.71em">2</text></g><g class="tick" opacity="1" transform="translate(190.51283482142856,0)"><line stroke="currentColor" y2="6"></line><text fill="currentColor" y="9" dy="0.71em">2.5</text></g><g class="tick" opacity="1" transform="translate(206.3472377232143,0)"><line stroke="currentColor" y2="6"></line><text fill="currentColor" y="9" dy="0.71em">3</text></g><g class="tick" opacity="1" transform="translate(222.181640625,0)"><line stroke="currentColor" y2="6"></line><text fill="currentColor" y="9" dy="0.71em">3.5</text></g></g></g><g><path fill-opacity="1" fill="#4DBBD5" stroke-width="1" stroke-linejoin="round" d="M0,67.5L0.2541937258509467,67.41114219960157C0.5083874517018934,67.32228439920313,1.0167749034037867,67.14456879840627,1.7360773466855175,67.04426483564886C2.4553797899672483,66.94396087289145,3.385597224828817,66.9210685481735,4.3158146596903855,66.89144304748568C5.246032094551954,66.86181754679788,6.176249529413522,66.82545887014022,7.10646696427509,66.78337969372741C8.036684399136659,66.74130051731458,8.966901833998229,66.69350084114662,9.897119268859797,66.64434411536504C10.827336703721365,66.59518738958347,11.757554138582933,66.54467361418831,12.6877715734445,66.49152920884545C13.617989008306068,66.43838480350257,14.548206443167638,66.38260976821199,15.478423878029206,66.31492479347837C16.408641312890776,66.24723981874473,17.338858747752344,66.16764490456806,18.26907618261391,66.07823157865802C19.19929361747548,65.98881825274799,20.129511052337048,65.8895865151046,21.059728487198615,65.78216095641632C21.989945922060183,65.67473539772806,22.92016335692175,65.55911601799492,23.850380791783323,65.4291335638846C24.780598226644894,65.29915110977431,25.710815661506462,65.15480558128684,26.641033096368034,64.99974433554168C27.571250531229598,64.84468308979653,28.50146796609117,64.67890612679369,29.431685400952734,64.49936092586255C30.361902835814305,64.3198157249314,31.292120270675877,64.12650228607195,32.22233770553744,63.93189955522465C33.15255514039901,63.73729682437736,34.08277257526058,63.54140480154222,35.012990010122145,63.33851439468132C35.94320744498371,63.13562398782043,36.87342487984528,62.92573519693379,37.80364231470685,62.69358315589265C38.73385974956842,62.46143111485151,39.66407718442999,62.20701582365586,40.59429461929156,61.9450737933835C41.52451205415313,61.68313176311114,42.454729489014696,61.41366299376208,43.384946923876264,61.11943248971354C44.31516435873783,60.82520198566499,45.2453817935994,60.506209746916966,46.175599228460975,60.17040645844188C47.105816663322535,59.834603169966805,48.03603409818411,59.481988831764674,48.96625153304567,59.12125166283264C49.896468967907246,58.76051449390062,50.826686402768814,58.391654494238715,51.756903837630375,58.01413752645659C52.68712127249194,57.63662055867448,53.61733870735352,57.25044662277215,54.547556142215086,56.86238415315406C55.47777357707665,56.47432168353597,56.407991011938215,56.08437068020209,57.33820844679979,55.68041469899136C58.26842588166136,55.276458717780635,59.198643316522926,54.85849775869306,60.1288607513845,54.43309734214967C61.05907818624606,54.00769692560629,61.98929562110763,53.5748570516071,62.9195130559692,53.137721895185045C63.84973049083076,52.70058673876298,64.77994792569233,52.259156299918054,65.7101653605539,51.822999760677895C66.64038279541548,51.38684322143774,67.57060023027704,50.955960581802366,68.50081766513861,50.524393518412516C69.43103510000019,50.09282645502265,70.36125253486175,49.66057496787835,71.29146996972331,49.21645063955621C72.22168740458488,48.77232631123409,73.15190483944644,48.316329141734144,74.08212227430802,47.853859166769105C75.01233970916958,47.39138919180407,75.94255714403117,46.92244641137393,76.87277457889273,46.46527997470641C77.80299201375429,46.008113538038884,78.73320944861587,45.562723445133976,79.66342688347743,45.1192037651011C80.593644318339,44.67568408506821,81.52386175320056,44.23403481790737,82.45407918806214,43.801280270133326C83.38429662292371,43.36852572235927,84.31451405778527,42.94466589397202,85.24473149264684,42.501925475904095C86.17494892750841,42.059185057836174,87.10516636236997,41.597564050087584,88.03538379723155,41.1449698465845C88.9656012320931,40.69237564308141,89.89581866695467,40.248808243823824,90.82603610181626,39.82840382763134C91.75625353667782,39.40799941143886,92.68647097153939,39.01075797831148,93.61668840640095,38.637327117426246C94.54690584126253,38.26389625654101,95.47712327612409,37.91427596789791,96.40734071098568,37.574810127281545C97.33755814584724,37.23534428666518,98.2677755807088,36.90603289407555,99.19799301557038,36.60654033558074C100.12821045043194,36.30704777708591,101.05842788529351,36.037374052685905,101.98864532015507,35.78702520502185C102.91886275501663,35.5366763573578,103.84908018987822,35.305652386429706,104.77929762473978,35.08531861603322C105.70951505960134,34.864984845636734,106.6397324944629,34.65534127577186,107.56994992932447,34.4803370792585C108.50016736418604,34.30533288274513,109.4303847990476,34.164968059583266,110.36060223390916,34.049018441932105C111.29081966877074,33.933068824280944,112.22103710363233,33.84153441214047,113.15125453849389,33.79856806701296C114.08147197335545,33.75560172188545,115.01168940821702,33.76120344377089,115.94190684307858,33.79722653402083C116.87212427794016,33.83324962427076,117.80234171280172,33.89969408288519,118.73255914766328,34.00293614163726C119.66277658252487,34.10617820038932,120.59299401738643,34.24621785927903,121.52321145224799,34.416850967689136C122.45342888710957,34.58748407609924,123.38364632197113,34.78871063402974,124.31386375683269,35.001495494619014C125.24408119169426,35.214280355208295,126.17429862655582,35.438623518456346,127.10451606141741,35.68979823840144C128.03473349627896,35.94097295834652,128.96495093114052,36.218979234988645,129.89516836600208,36.52759103340385C130.82538580086367,36.83620283181906,131.75560323572523,37.17542015200734,132.6858206705868,37.543950060189296C133.61603810544838,37.91247996837125,134.54625554030994,38.31032246454688,135.4764729751715,38.7296928844304C136.4066904100331,39.14906330431393,137.33690784489465,39.589961647905355,138.26712527975621,40.045458072352574C139.19734271461778,40.50095449679979,140.12756014947936,40.9710490021028,141.05777758434093,41.46345152867033C141.9879950192025,41.95585405523786,142.91821245406405,42.47056460306991,143.8484298889256,43.003399465060916C144.77864732378717,43.536234327051936,145.7088647586488,44.08719350320192,146.63908219351035,44.65788099999593C147.5692996283719,45.22856849678993,148.4995170632335,45.818984314227976,149.42973449809506,46.40872127890851C150.35995193295662,46.998458243589056,151.2901693678182,47.58751635551209,152.22038680267977,48.17330021412491C153.15060423754133,48.75908407273772,154.0808216724029,49.34159367804029,155.01103910726445,49.92260134798894C155.941256542126,50.50360901793757,156.87147397698757,51.083114752532275,157.80169141184916,51.66183865285951C158.73190884671075,52.240562553186756,159.6621262815723,52.81850461924654,160.59234371643387,53.38570052792978C161.52256115129543,53.952896436613024,162.45277858615702,54.509346187919725,163.38299602101858,55.04683990183984C164.31321345588015,55.58433361575995,165.2434308907417,56.10287129229348,166.17364832560327,56.58777670644127C167.10386576046483,57.07268212058906,168.03408319532642,57.52395527235111,168.96430063018798,57.96079114813915C169.89451806504954,58.39762702392721,170.8247354999111,58.82002562374125,171.75495293477266,59.22695744088185C172.68517036963428,59.633889258022435,173.61538780449584,60.02535429248957,174.5456052393574,60.397006484367125C175.47582267421896,60.76865867624469,176.40604010908052,61.12049802553269,177.33625754394208,61.45855640348043C178.26647497880364,61.79661478142818,179.1966924136652,62.12089218803567,180.1269098485268,62.42506883472575C181.05712728338835,62.72924548141582,181.98734471824991,63.013321368188485,182.9175621531115,63.277687725185665C183.84777958797306,63.54205408218284,184.77799702283468,63.786710909404526,185.70821445769624,64.00771471256716C186.6384318925578,64.22871851572981,187.56864932741937,64.4260692948334,188.49886676228093,64.60749644155233C189.4290841971425,64.78892358827125,190.35930163200405,64.9544271026055,191.28951906686564,65.10373647409516C192.2197365017272,65.25304584558481,193.14995393658876,65.38616107422986,194.08017137145035,65.51115106142525C195.0103888063119,65.63614104862062,195.94060624117347,65.75300579436633,196.87082367603503,65.86364055684442C197.8010411108966,65.9742753193225,198.73125854575815,66.07868009853298,199.66147598061977,66.17553378672233C200.59169341548127,66.27238747491167,201.52191085034283,66.36169007207988,202.45212828520445,66.44199117670885C203.382345720066,66.52229228133781,204.31256315492757,66.59359189342756,205.24278058978913,66.65989115271127C206.17299802465072,66.726190411995,207.10321545951228,66.78748931847274,208.03343289437385,66.84221651621193C208.96365032923543,66.89694371395113,209.893867764097,66.94509920295178,210.82408519895856,66.98715890059204C211.75430263382012,67.0292185982323,212.68452006868168,67.06518250451215,213.61473750354324,67.09659781947109C214.5449549384048,67.12801313442999,215.47517237326636,67.154879858068,216.40538980812798,67.17845245137964C217.33560724298954,67.20202504469127,218.2658246778511,67.22230350767653,219.14519981399644,67.27534574405885C220.02457495014178,67.32838798044118,220.8531077875709,67.4141939902206,221.26737420628547,67.45709699511029L221.681640625,67.5"></path></g><g transform="translate(0,142.5)"><g fill="none" font-size="10" font-family="sans-serif" text-anchor="middle"><path class="domain" stroke="currentColor" d="M0.5,6V0.5H101.7193212585861V6"></path><g class="tick" opacity="1" transform="translate(0.5,0)"><line stroke="currentColor" y2="6"></line><text fill="currentColor" y="9" dy="0.71em">10</text></g><g class="tick" opacity="1" transform="translate(13.152415157323263,0)"><line stroke="currentColor" y2="6"></line><text fill="currentColor" y="9" dy="0.71em">20</text></g><g class="tick" opacity="1" transform="translate(25.804830314646527,0)"><line stroke="currentColor" y2="6"></line><text fill="currentColor" y="9" dy="0.71em">30</text></g><g class="tick" opacity="1" transform="translate(38.45724547196979,0)"><line stroke="currentColor" y2="6"></line><text fill="currentColor" y="9" dy="0.71em">40</text></g><g class="tick" opacity="1" transform="translate(51.10966062929305,0)"><line stroke="currentColor" y2="6"></line><text fill="currentColor" y="9" dy="0.71em">50</text></g><g class="tick" opacity="1" transform="translate(63.762075786616315,0)"><line stroke="currentColor" y2="6"></line><text fill="currentColor" y="9" dy="0.71em">60</text></g><g class="tick" opacity="1" transform="translate(76.41449094393958,0)"><line stroke="currentColor" y2="6"></line><text fill="currentColor" y="9" dy="0.71em">70</text></g><g class="tick" opacity="1" transform="translate(89.06690610126284,0)"><line stroke="currentColor" y2="6"></line><text fill="currentColor" y="9" dy="0.71em">80</text></g><g class="tick" opacity="1" transform="translate(101.7193212585861,0)"><line stroke="currentColor" y2="6"></line><text fill="currentColor" y="9" dy="0.71em">90</text></g></g></g><g><path fill-opacity="1" fill="#4DBBD5" stroke-width="1" stroke-linejoin="round" d="M0,142.5L0.140020061074377,142.3632763539499C0.280040122148754,142.22655270789983,0.560080244297508,141.95310541579963,0.9126608800149157,141.7792056001059C1.2652415157323234,141.6053057844122,1.6903626650183847,141.53095344512494,2.115483814304446,141.45427267119027C2.540604963590507,141.3775918972556,2.9657261128765686,141.29858268867358,3.3908472621626298,141.22077366132044C3.8159684114486914,141.1429646339673,4.2410895607347525,141.06635578784304,4.666210710020813,140.9936508616073C5.091331859306875,140.92094593537155,5.516453008592936,140.8521449290243,5.941574157878997,140.7838439122455C6.36669530716506,140.7155428954667,6.79181645645112,140.64774186825636,7.21693760573718,140.57590882108596C7.642058755023243,140.50407577391556,8.067179904309304,140.42821070678505,8.492301053595364,140.35288519579032C8.917422202881426,140.27755968479553,9.342543352167487,140.20277372993655,9.767664501453549,140.12005218364894C10.19278565073961,140.0373306373613,10.617906800025672,139.94667349964504,11.043027949311734,139.86115956273076C11.468149098597793,139.77564562581648,11.893270247883855,139.69527488970417,12.318391397169917,139.61263433014514C12.743512546455976,139.52999377058612,13.168633695742038,139.4450833875804,13.5937548450281,139.36021818767128C14.018875994314163,139.27535298776212,14.443997143600223,139.19053297094953,14.869118292886284,139.1020669486177C15.294239442172346,139.01360092628587,15.719360591458406,138.92148889843483,16.144481740744467,138.8311812050035C16.569602890030527,138.7408735115722,16.99472403931659,138.65237015256065,17.419845188602654,138.56415130629583C17.844966337888714,138.475932460031,18.270087487174774,138.3879981265129,18.695208636460833,138.30178535677592C19.120329785746893,138.2155725870389,19.545450935032957,138.131081381083,19.97057208431902,138.04197193166578C20.395693233605083,137.95286248224855,20.820814382891143,137.85913478937005,21.245935532177203,137.76433878523787C21.671056681463266,137.66954278110566,22.096177830749326,137.57367846571984,22.521298980035386,137.47634289839925C22.94642012932145,137.37900733107867,23.37154127860751,137.28020051182338,23.79666242789357,137.1794122772029C24.221783577179632,137.07862404258245,24.646904726465692,136.97585439259686,25.072025875751752,136.88143008981476C25.497147025037815,136.7870057870327,25.922268174323875,136.70092683145415,26.347389323609942,136.61489098238937C26.772510472896002,136.5288551333246,27.19763162218206,136.44286239077363,27.622752771468125,136.35787716019846C28.047873920754185,136.27289192962328,28.472995070040245,136.18891421102396,28.898116219326308,136.0906119735118C29.32323736861237,135.99230973599967,29.748358517898435,135.87968297957468,30.173479667184495,135.7416474000872C30.59860081647056,135.60361182059975,31.023721965756625,135.44016741804978,31.44884311504269,135.26472631801533C31.873964264328748,135.0892852179809,32.29908541361481,134.90184742046193,32.724206562900875,134.71495898361556C33.14932771218694,134.52807054676921,33.574448861473,134.34173147059545,33.999570010759065,134.1597233447452C34.42469116004512,133.97771521889499,34.849812309331185,133.8000380433683,35.27493345861725,133.61663554792514C35.70005460790331,133.433233052482,36.125175757189375,133.24410523712245,36.55029690647544,133.0413035701016C36.9754180557615,132.8385019030808,37.400539205047565,132.6220263843987,37.82566035433363,132.40229543197094C38.25078150361969,132.18256447954312,38.675902652905755,131.9595780933696,39.10102380219182,131.73140185296543C39.52614495147788,131.5032256125613,39.951266100763945,131.2698595179265,40.37638725005001,131.02665426744713C40.801508399336065,130.78344901696778,41.22662954862213,130.53040461064384,41.65175069790819,130.2771362539255C42.076871847194255,130.02386789720717,42.50199299648032,129.77037559009435,42.92711414576638,129.51556017223285C43.352235295052445,129.2607447543713,43.7773564443385,129.00460622576102,44.20247759362457,128.7369157995178C44.627598742910635,128.4692253732745,45.0527198921967,128.18998304939825,45.477841041482755,127.89586417703988C45.90296219076882,127.60174530468157,46.32808334005488,127.29274988384113,46.75320448934094,126.95828308462393C47.17832563862701,126.6238162854067,47.60344678791307,126.26387810781269,48.028567937199135,125.8834986625029C48.45368908648519,125.50311921719309,48.87881023577126,125.10229850416749,49.303931385057325,124.68257927809891C49.72905253434339,124.26286005203036,50.15417368362946,123.82424231291884,50.579294832915515,123.38732512786659C51.00441598220158,122.95040794281435,51.42953713148764,122.5151913118214,51.85465828077371,122.0916123176379C52.27977943005976,121.66803332345444,52.704900579345825,121.25609196608043,53.13002172863188,120.85078593179696C53.555142877917945,120.4454798975135,53.98026402720401,120.04680918632057,54.40538517649008,119.64566306301681C54.830506325776135,119.24451693971305,55.255627475062205,118.84089540429848,55.68074862434827,118.43448349909283C56.10586977363433,118.0280715938872,56.53099092292039,117.6188693188905,56.95611207220646,117.21924863378905C57.38123322149252,116.81962794868758,57.806354370778585,116.42958885348135,58.23147552006464,116.0405560159392C58.656596669350705,115.65152317839704,59.08171781863677,115.26349659851896,59.506838967922825,114.87130148078369C59.93196011720889,114.47910636304839,60.35708126649495,114.08274270745592,60.78220241578101,113.69988465154033C61.20732356506708,113.31702659562477,61.63244471435314,112.9476741393861,62.057565863639205,112.59885751203232C62.48268701292526,112.25004088467854,62.90780816221133,111.9217600862097,63.332929311497395,111.6290112985751C63.758050460783465,111.33626251094047,64.18317161006952,111.07904573414014,64.60829275935559,110.85726495060966C65.03341390864165,110.63548416707918,65.4585350579277,110.44913937681856,65.88365620721378,110.26788017264026C66.30877735649983,110.08662096846196,66.73389850578589,109.91044735036594,67.15901965507196,109.73293422487923C67.58414080435803,109.55542109939255,68.0092619536441,109.37656846651515,68.43438310293016,109.22537065519215C68.85950425221621,109.07417284386914,69.28462540150227,108.95062985410051,69.70974655078832,108.87601054849422C70.13486770007438,108.80139124288792,70.55998884936044,108.77569562144396,70.98510999864651,108.78648175478565C71.41023114793256,108.79726788812731,71.83535229721862,108.84453577625463,72.26047344650469,108.90765442286288C72.68559459579075,108.97077306947112,73.1107157450768,109.04974247456029,73.53583689436287,109.16234574051357C73.96095804364892,109.27494900646684,74.38607919293499,109.42118613328421,74.81120034222106,109.60603996497888C75.2363214915071,109.79089379667353,75.66144264079317,110.01436433324547,76.08656379007921,110.26411712589811C76.51168493936528,110.51386991855072,76.93680608865135,110.78990496728404,77.36192723793741,111.09481453031675C77.78704838722346,111.39972409334945,78.21216953650952,111.73350817068153,78.63729068579558,112.1116659023686C79.06241183508165,112.4898236340557,79.4875329843677,112.91235502009778,79.91265413365376,113.36008056768326C80.33777528293983,113.8078061152687,80.76289643222589,114.28072582439755,81.18801758151194,114.77890795750255C81.61313873079801,115.27709009060756,82.03825988008407,115.80053464768872,82.46338102937013,116.33068621874527C82.88850217865618,116.86083778980185,83.31362332794224,117.39769637483381,83.7387444772283,117.93700827518461C84.16386562651435,118.47632017553538,84.58898677580042,119.01808539120502,85.01410792508648,119.5495930753461C85.43922907437253,120.08110075948719,85.8643502236586,120.60235091209977,86.28947137294466,121.12420445834773C86.71459252223072,121.64605800459572,87.13971367151679,122.16851494447906,87.56483482080284,122.70614204631983C87.9899559700889,123.24376914816055,88.41507711937497,123.79656641195872,88.84019826866101,124.36032494586071C89.26531941794707,124.92408347976271,89.69044056723313,125.4988032837686,90.1155617165192,126.0727818940566C90.54068286580525,126.64676050434461,90.96580401509131,127.21999792091476,91.39092516437738,127.77409741813942C91.81604631366343,128.32819691536406,92.24116746294949,128.8631584932432,92.66628861223556,129.39390145138432C93.09140976152162,129.92464440952548,93.51653091080767,130.45116874792868,93.94165206009374,130.96968301665888C94.36677320937979,131.4881972853891,94.79189435866586,131.99870148444637,95.2170155079519,132.48055478511557C95.64213665723798,132.9624080857848,96.06725780652403,133.41561048806594,96.49237895581011,133.84716562975794C96.91750010509615,134.27872077144994,97.34262125438222,134.6886286525528,97.76774240366827,135.07316951401643C98.19286355295434,135.45771037548005,98.61798470224039,135.81688421730442,99.04310585152645,136.16414370721063C99.46822700081252,136.51140319711683,99.89334815009857,136.84674833510488,100.25605071794185,137.90073865858344C100.61875328578513,138.95472898206194,100.91903727218562,140.72736449103095,101.06917926538586,141.6136822455155L101.2193212585861,142.5"></path></g></g></g></svg>